<svg id="Layer_1" data-name="Layer 1" xmlns="http://www.w3.org/2000/svg" viewBox="0 0 512 512"><defs><style>.cls-1{fill:#fff;}</style></defs><title>455706</title><path d="M437,75C337-25,174.91-25,75,75S-25,337.09,75,437.05s262.08,99.93,362-.06A256,256,0,0,0,437,75Z" transform="translate(0 0)"/><path class="cls-1" d="M392.69,241,265.77,125.37a14.43,14.43,0,0,0-19.54,0L119.31,241a14.51,14.51,0,0,0,9.77,25.23h20.27V382.12a8.31,8.31,0,0,0,8.32,8.32h69.57a8.32,8.32,0,0,0,8.32-8.32V311.77h40.88v70.35a8.32,8.32,0,0,0,8.32,8.32h69.57a8.32,8.32,0,0,0,8.32-8.32V266.25h20.28A14.51,14.51,0,0,0,392.69,241Z" transform="translate(0 0)"/><path class="cls-1" d="M360.48,138.16H304.61l64.19,58.37V146.48A8.33,8.33,0,0,0,360.48,138.16Z" transform="translate(0 0)"/></svg>